:SAMPLES-PER-SECOND 30
:FULLY-SPECIFIED
:DEGREES
371
root  -4.87081 38.9577 -22.9186 -164.486 -81.5552 154.773
RightUpLeg  -14.7207 -3.41864 -9.83445
RightLeg  49.1942 1.50695 1.54528
RightFoot  -1.70241 -0.753826 8.78875
RightToes  5.82063e-011 0 -3.6325e-017
Spine  8.44096 0.570736 -2.6846
Spine1  12.9973 1.54588 -6.23863
HEad  -0.737278 14.4661 -4.98728
LeftShoulder1  0.106252 3.19859 -28.7102
LeftArm  0.720747 9.2153 -42.6805
LeftForeArm  16.5467 -22.4282 -4.13105
LeftHand  -0.0890328 1.23848 2.3377
RightShoulder  -0.440766 -4.82737 26.3985
RightArm  15.4522 -3.6935 47.398
RightForeArm  7.29469 11.6312 6.95067
RightHand  -0.812683 6.2626 -8.41592
LeftUpLeg  2.7603 6.96044 -6.73501
LeftLeg  19.3433 -2.84065 -1.4645
LeftFoot  -10.887 0.0301136 8.81129
LeftToes  2.58842e-009 -1.78069e-010 3.24654e-012
372
root  -6.04788 39.0453 -23.1896 -161.462 -82.9533 151.973
RightUpLeg  -15.5769 -3.07672 -9.90861
RightLeg  38.5405 1.41383 0.955841
RightFoot  -1.49245 -0.764233 8.7307
RightToes  5.82063e-011 0 -3.6325e-017
Spine  8.08778 0.256573 -2.38226
Spine1  12.6949 1.2367 -5.94514
HEad  -1.11615 14.8275 -5.92181
LeftShoulder1  0.148986 3.07248 -28.3847
LeftArm  0.650705 8.71467 -42.9228
LeftForeArm  17.0416 -23.3161 -4.11915
LeftHand  -0.100303 0.469771 2.33902
RightShoulder  -0.461081 -4.88918 26.403
RightArm  14.6809 -4.91027 46.4196
RightForeArm  6.6302 12.0229 6.60372
RightHand  -0.775037 6.1356 -8.12171
LeftUpLeg  5.67493 6.56694 -6.04298
LeftLeg  17.2384 -3.67433 -1.7203
LeftFoot  -11.9633 0.12005 8.71235
LeftToes  2.58842e-009 -1.78069e-010 3.24654e-012
373
root  -7.2649 39.0202 -23.4778 -153.809 -84.4722 144.621
RightUpLeg  -15.2673 -2.77751 -10.5386
RightLeg  26.2371 1.22975 0.559489
RightFoot  -1.18001 -0.86855 9.65758
RightToes  5.82063e-011 0 -3.6325e-017
Spine  7.56968 -0.0804053 -2.15072
Spine1  12.391 0.902318 -5.67197
HEad  -0.761216 14.2282 -6.21636
LeftShoulder1  0.119817 3.15628 -28.332
LeftArm  0.696098 7.79965 -42.9636
LeftForeArm  17.0909 -23.7759 -4.19054
LeftHand  -0.0875516 1.33267 2.33871
RightShoulder  -0.436353 -4.82388 26.1482
RightArm  14.2085 -6.28726 45.6475
RightForeArm  6.2393 12.3521 6.35105
RightHand  -0.829458 7.00644 -8.09432
LeftUpLeg  8.41659 6.67476 -5.3182
LeftLeg  15.4316 -5.45543 -2.06679
LeftFoot  -13.2239 0.232689 9.269
LeftToes  2.58842e-009 -1.78069e-010 3.24654e-012
374
root  -8.49352 38.945 -23.7618 -137.585 -85.8723 129.037
RightUpLeg  -14.5962 -2.86937 -11.3007
RightLeg  13.4384 2.98664 -0.128982
RightFoot  -0.878189 -0.911603 9.87124
RightToes  5.82063e-011 0 -3.6325e-017
Spine  6.84922 -0.438055 -1.88583
Spine1  11.9033 0.56068 -5.36586
HEad  0.333376 8.14656 -4.61372
LeftShoulder1  0.119606 3.1546 -28.1466
LeftArm  1.2024 7.31334 -42.9189
LeftForeArm  17.2806 -24.3939 -4.30993
LeftHand  -0.109554 0.317873 2.48479
RightShoulder  -0.443386 -4.84269 26.2135
RightArm  14.1301 -7.44487 44.6983
RightForeArm  6.4336 12.6754 6.16503
RightHand  -0.817756 6.53986 -8.2713
LeftUpLeg  10.4925 6.77649 -4.7909
LeftLeg  14.1978 -7.41443 -2.20711
LeftFoot  -14.4537 0.353321 9.78672
LeftToes  2.58842e-009 -1.78069e-010 3.24654e-012
375
root  -9.74853 38.8383 -24.0826 -113.686 -86.4541 105.418
RightUpLeg  -13.7531 -6.39411 -10.6075
RightLeg  2.32632 10.1184 -2.74571
RightFoot  -0.857932 -0.87143 9.36866
RightToes  5.82063e-011 0 -3.6325e-017
Spine  6.24987 -0.440839 -1.87458
Spine1  12.0482 0.35259 -4.25626
HEad  0.501915 7.57288 -4.58071
LeftShoulder1  0.0603405 3.33126 -28.7543
LeftArm  2.27616 6.27214 -42.4255
LeftForeArm  15.8416 -24.6419 -4.43879
LeftHand  -0.121115 0.336741 2.75906
RightShoulder  -0.44102 -4.84949 25.8534
RightArm  13.5669 -8.77865 44.2193
RightForeArm  6.80195 13.3444 5.77915
RightHand  -0.733642 5.98917 -7.79757
LeftUpLeg  13.1154 7.32574 -3.72292
LeftLeg  12.8419 -9.97464 -2.67916
LeftFoot  -15.7149 0.470525 9.81554
LeftToes  2.58842e-009 -1.78069e-010 3.24654e-012
376
root  -11.0443 38.6159 -24.4645 -78.1146 -86.123 69.6591
RightUpLeg  -13.3589 -9.67531 -10.9616
RightLeg  -3.00346 14.4321 -3.61438
RightFoot  -2.56006 -0.735258 9.54085
RightToes  5.82063e-011 0 -3.6325e-017
Spine  6.25172 -0.649633 -1.88582
Spine1  12.1536 0.0478253 -3.77743
HEad  -0.0835384 9.11515 -5.7175
LeftShoulder1  0.0829018 3.2676 -28.9713
LeftArm  2.37786 5.23102 -42.3331
LeftForeArm  15.6855 -24.1431 -4.34939
LeftHand  -0.0822152 1.68202 2.33855
RightShoulder  -0.538787 -5.12717 26.4127
RightArm  12.9196 -9.312 43.4097
RightForeArm  7.12504 13.3989 5.56446
RightHand  -0.706452 6.09956 -7.45186
LeftUpLeg  15.6306 7.65986 -2.58913
LeftLeg  12.8166 -13.001 -3.11104
LeftFoot  -17.5905 0.631318 9.60892
LeftToes  2.58842e-009 -1.78069e-010 3.24654e-012
377
root  -12.4041 38.2924 -24.9094 -56.9056 -85.2987 48.1801
RightUpLeg  -13.3367 -10.3055 -11.2818
RightLeg  -2.00842 11.7795 -2.45609
RightFoot  -3.64444 -0.84311 12.4005
RightToes  5.82063e-011 0 -3.6325e-017
Spine  6.46177 -0.774039 -1.26704
Spine1  12.0498 -0.0850437 -3.73991
HEad  -0.406346 11.3184 -7.04081
LeftShoulder1  0.090108 3.24577 -28.8214
LeftArm  1.74403 4.84844 -42.688
LeftForeArm  15.8146 -23.0246 -4.16052
LeftHand  -0.0966173 0.932816 2.40838
RightShoulder  -0.521589 -5.07621 26.3677
RightArm  12.5378 -9.87892 43.2824
RightForeArm  7.32311 13.1132 5.53462
RightHand  -0.665404 5.51482 -7.38652
LeftUpLeg  17.5316 7.22296 -1.49703
LeftLeg  14.2242 -14.4403 -2.84199
LeftFoot  -20.1973 0.823305 9.03814
LeftToes  2.58842e-009 -1.78069e-010 3.24654e-012
378
root  -13.6803 38.14 -25.3287 -39.37 -85.0259 30.8929
RightUpLeg  -14.9932 -9.03884 -10.168
RightLeg  3.84078 8.42354 -1.56557
RightFoot  2.98039 -1.15444 9.18152
RightToes  5.82063e-011 0 -3.6325e-017
Spine  6.37215 -0.872679 0.621321
Spine1  12.3189 -0.203516 -3.08849
HEad  -0.251012 12.6777 -8.05907
LeftShoulder1  0.0151573 3.46117 -29.3724
LeftArm  1.45782 5.03876 -42.1044
LeftForeArm  15.3811 -22.5961 -4.1833
LeftHand  -0.078205 1.4086 2.09853
RightShoulder  -0.509288 -5.0445 26.2419
RightArm  11.9506 -9.70807 43.4253
RightForeArm  7.16732 12.2099 5.64754
RightHand  -0.704232 6.28352 -7.32059
LeftUpLeg  18.9454 4.91367 -0.559862
LeftLeg  14.6853 -13.4962 -1.99083
LeftFoot  -21.5299 0.815598 7.69784
LeftToes  2.58842e-009 -1.78069e-010 3.24654e-012
379
root  -15.0743 37.9563 -25.7771 -28.1218 -84.8775 19.26
RightUpLeg  -15.7793 -6.82339 -9.53744
RightLeg  9.35809 7.389 -0.318272
RightFoot  9.04518 -1.57641 9.09267
RightToes  5.82063e-011 0 -3.6325e-017
Spine  7.15961 -0.960078 2.68063
Spine1  11.7182 -0.058086 -3.41942
HEad  0.204412 13.5479 -8.0187
LeftShoulder1  -0.0368569 3.60726 -29.5817
LeftArm  1.87025 6.12403 -41.4852
LeftForeArm  14.6353 -21.8966 -4.28664
LeftHand  -0.0887464 0.749333 2.14455
RightShoulder  -0.532794 -5.10347 26.5081
RightArm  11.7237 -9.06695 43.3169
RightForeArm  7.83501 11.2827 5.81655
RightHand  -0.739905 6.40652 -7.59849
LeftUpLeg  20.4226 0.510629 -0.370806
LeftLeg  16.7625 -10.0812 -1.854
LeftFoot  -22.4644 0.643135 5.2211
LeftToes  2.58842e-009 -1.78069e-010 3.24654e-012
380
root  -16.4389 37.8452 -26.1629 -12.1608 -84.4404 2.63736
RightUpLeg  -16.4397 -5.49553 -8.7613
RightLeg  16.5345 6.05709 1.75819
RightFoot  7.29018 -1.11462 7.07053
RightToes  5.82063e-011 0 -3.6325e-017
Spine  7.69769 -1.34569 5.89991
Spine1  12.0813 0.0568986 -4.25505
HEad  0.420665 14.5635 -8.40621
LeftShoulder1  0.0192071 3.45045 -29.8666
LeftArm  1.23167 6.99588 -41.1945
LeftForeArm  15.182 -20.513 -4.51377
LeftHand  -0.077767 1.37027 2.06401
RightShoulder  -0.577573 -5.23024 26.7002
RightArm  11.5343 -7.62676 43.3638
RightForeArm  7.68337 10.3066 6.02261
RightHand  -0.823211 6.61315 -8.28599
LeftUpLeg  21.1608 -4.47386 0.103646
LeftLeg  20.7912 -6.56348 -2.51461
LeftFoot  -22.0585 0.316412 1.96724
LeftToes  2.58842e-009 -1.78069e-010 3.24654e-012
381
root  -17.7453 37.8641 -26.5197 3.88484 -83.8301 -13.0479
RightUpLeg  -16.5804 -7.24347 -6.49717
RightLeg  20.4497 6.71378 2.56483
RightFoot  4.26704 -0.724655 5.50101
RightToes  5.82063e-011 0 -3.6325e-017
Spine  7.32543 -1.64981 9.01386
Spine1  12.2681 0.0998082 -3.93732
HEad  1.13869 16.1323 -8.70723
LeftShoulder1  0.0253304 3.43403 -30.1567
LeftArm  0.514611 8.50772 -41.0698
LeftForeArm  16.8944 -18.8927 -4.93856
LeftHand  -0.0654237 1.56638 1.77175
RightShoulder  -0.536474 -5.11741 26.4586
RightArm  10.8797 -6.56793 43.5437
RightForeArm  8.04066 9.83148 5.92998
RightHand  -0.805332 6.94142 -7.90151
LeftUpLeg  19.1703 -5.3354 2.57759
LeftLeg  27.1906 -6.6307 -3.38669
LeftFoot  -19.147 -0.00741075 -2.08713
LeftToes  2.58842e-009 -1.78069e-010 3.24654e-012
382
root  -18.9112 37.9919 -26.8985 11.6205 -82.0786 -19.7024
RightUpLeg  -16.4398 -8.62665 -4.75566
RightLeg  22.2965 6.26927 2.60015
RightFoot  1.43788 -0.523765 4.77872
RightToes  5.82063e-011 0 -3.6325e-017
Spine  6.99362 -1.82728 10.5671
Spine1  11.6994 -0.106532 -2.36261
HEad  1.9052 17.0047 -8.80859
LeftShoulder1  0.0138741 3.46512 -29.9464
LeftArm  -0.338527 9.68551 -41.5728
LeftForeArm  19.2968 -16.7266 -5.68334
LeftHand  -0.038041 1.69215 0.889639
RightShoulder  -0.560826 -5.18718 26.5484
RightArm  11.1254 -5.46155 43.1774
RightForeArm  7.1181 10.1711 5.9677
RightHand  -0.699259 6.0289 -7.42391
LeftUpLeg  13.8349 -5.31108 5.52321
LeftLeg  36.146 -6.50014 -4.69915
LeftFoot  -12.3108 0.0282009 -6.70361
LeftToes  2.58842e-009 -1.78069e-010 3.24654e-012
